<svg viewBox="0 0 512 512" width="512" height="512" fill="none" xmlns="http://www.w3.org/2000/svg">
  <defs>
    <linearGradient id="snGoldRim" x1="0%" y1="0%" x2="100%" y2="100%">
      <stop offset="0%" stopColor="#FFF2B2" />
      <stop offset="18%" stopColor="#DFB135" />
      <stop offset="38%" stopColor="#9E6B15" />
      <stop offset="60%" stopColor="#F5D77F" />
      <stop offset="82%" stopColor="#E0B63C" />
      <stop offset="100%" stopColor="#8A5A0A" />
    </linearGradient>
    <linearGradient id="snGoldRimInner" x1="100%" y1="0%" x2="0%" y2="100%">
      <stop offset="0%" stopColor="#F7E298" />
      <stop offset="50%" stopColor="#C49326" />
      <stop offset="100%" stopColor="#FDE68A" />
    </linearGradient>
    <radialGradient id="snDarkDisc" cx="50%" cy="45%" r="50%">
      <stop offset="0%" stopColor="#1C1E24" />
      <stop offset="70%" stopColor="#0F1115" />
      <stop offset="100%" stopColor="#050608" />
    </radialGradient>
    <linearGradient id="snGoldPages" x1="0%" y1="0%" x2="0%" y2="100%">
      <stop offset="0%" stopColor="#FDE047" />
      <stop offset="50%" stopColor="#EAB308" />
      <stop offset="100%" stopColor="#A16207" />
    </linearGradient>
    <linearGradient id="snGoldSwoosh" x1="0%" y1="0%" x2="100%" y2="100%">
      <stop offset="0%" stopColor="#FBBF24" />
      <stop offset="40%" stopColor="#F59E0B" />
      <stop offset="100%" stopColor="#D97706" />
    </linearGradient>
    <linearGradient id="snTassel" x1="0%" y1="0%" x2="100%" y2="100%">
      <stop offset="0%" stopColor="#FDE68A" />
      <stop offset="50%" stopColor="#F59E0B" />
      <stop offset="100%" stopColor="#B45309" />
    </linearGradient>
    <linearGradient id="snGoldText" x1="0%" y1="0%" x2="100%" y2="0%">
      <stop offset="0%" stopColor="#E6B748" />
      <stop offset="50%" stopColor="#FBE18D" />
      <stop offset="100%" stopColor="#DFAC37" />
    </linearGradient>
  </defs>
  <circle cx="256" cy="256" r="250" fill="url(#snGoldRim)" />
  <circle cx="256" cy="256" r="236" fill="#0A0B0E" />
  <circle cx="256" cy="256" r="234" fill="none" stroke="url(#snGoldRimInner)" stroke-width="1.5" opacity="0.6" />
  <circle cx="256" cy="256" r="232" fill="url(#snDarkDisc)" />
  <circle cx="256" cy="256" r="210" fill="url(#snGoldRim)" opacity="0.03" />

  <g id="sn-mortarboard" transform="translate(0, 10)">
    <path d="M205 142 L256 168 L307 142 L307 165 C307 185 284 206 256 206 C228 206 205 185 205 165 Z" fill="#CBD5E1" opacity="0.9" />
    <path d="M205 142 L256 168 L256 206 C228 206 205 185 205 165 Z" fill="#94A3B8" opacity="0.6" />
    <polygon points="256,76 348,118 256,160 164,118" fill="#FFFFFF" />
    <polygon points="164,118 256,160 256,163 164,121" fill="#E2E8F0" />
    <polygon points="256,160 348,118 348,121 256,163" fill="#CBD5E1" />
    <ellipse cx="256" cy="118" rx="6" ry="3.5" fill="#F59E0B" />
    <path d="M256 118 Q 315 125 338 152" stroke="url(#snTassel)" stroke-width="3.5" stroke-linecap="round" fill="none" />
    <circle cx="338" cy="154" r="4.5" fill="#D97706" />
    <path d="M334 157 L342 157 L346 186 L330 186 Z" fill="url(#snTassel)" />
  </g>

  <g id="sn-open-book" transform="translate(0, 16)">
    <path d="M256 252 C206 244 140 234 116 220 C113 238 132 254 256 268 Z" fill="url(#snGoldPages)" />
    <path d="M256 245 C200 232 145 212 128 178 C124 198 150 226 256 248 Z" fill="url(#snGoldPages)" />
    <path d="M256 238 C215 220 160 180 148 154 C142 172 172 208 256 232 Z" fill="url(#snGoldPages)" />
    <path d="M256 252 C306 244 372 234 396 220 C399 238 380 254 256 268 Z" fill="url(#snGoldPages)" />
    <path d="M256 245 C312 232 367 212 384 178 C388 198 362 226 256 248 Z" fill="url(#snGoldPages)" />
    <path d="M256 238 C297 220 352 180 364 154 C370 172 340 208 256 232 Z" fill="url(#snGoldPages)" />
    <path d="M256 242 C200 226 150 196 130 172 C146 170 205 198 256 216 Z" fill="#FFFFFF" />
    <path d="M256 242 C312 226 362 196 382 172 C366 170 307 198 256 216 Z" fill="#FFFFFF" />
    <polygon points="256,220 259,268 256,270 253,268" fill="#FDE047" />
  </g>

  <g id="sn-text-study">
    <path d="M102 306 C92 301 84 294 80 286 L98 274 C102 281 108 286 116 286 C124 286 128 282 128 277 C128 266 94 271 94 246 C94 233 105 224 122 224 C132 224 142 228 147 234 L132 248 C128 244 124 241 119 241 C114 241 111 243 111 247 C111 257 146 252 146 276 C146 293 133 308 114 308 C109 308 105 307 102 306 Z" fill="#FFFFFF" transform="scale(1.22) translate(-14, 82)" />
    <path d="M148 226 L188 226 L188 243 L176 243 L176 306 L160 306 L160 243 L148 243 Z" fill="#FFFFFF" transform="scale(1.22) translate(-10, 82)" />
    <g transform="scale(1.22) translate(-6, 82)">
      <path d="M192 226 L208 226 L208 274 C208 288 215 293 224 293 C231 293 236 290 239 285 L239 300 C234 305 228 308 220 308 C202 308 192 296 192 274 Z" fill="#FFFFFF" />
      <path d="M239 226 L224 226 C232 244 239 265 239 286 C237 296 228 296 220 292 C216 290 213 293 213 296 C216 303 226 308 238 303 C245 299 248 290 248 278 L248 226 Z" fill="url(#snGoldSwoosh)" />
    </g>
    <path d="M246 226 L267 226 C284 226 295 238 295 266 C295 294 284 306 267 306 L246 306 Z M262 243 L262 289 L267 289 C276 289 280 280 280 266 C280 252 276 243 267 243 Z" fill="#FFFFFF" transform="scale(1.22) translate(-2, 82)" />
    <path d="M298 226 L315 226 L326 254 L338 226 L355 226 L334 269 L334 306 L318 306 L318 269 Z" fill="#FFFFFF" transform="scale(1.22) translate(3, 82)" />
  </g>

  <g id="sn-text-network">
    <text x="256" y="378" text-anchor="middle" fill="url(#snGoldText)" font-size="27" font-family="system-ui, -apple-system, BlinkMacSystemFont, 'Segoe UI', Roboto, sans-serif" font-weight="700" letter-spacing="9">
      NETWORK
    </text>
  </g>

  <g id="sn-motto-bar">
    <line x1="108" y1="400" x2="164" y2="400" stroke="#DFAC37" stroke-width="1.5" stroke-linecap="round" />
    <text x="256" y="404" text-anchor="middle" fill="#E6B748" font-size="10.5" font-family="system-ui, -apple-system, BlinkMacSystemFont, 'Segoe UI', Roboto, sans-serif" font-weight="600" letter-spacing="3">
      LEARN • GROW • SUCCEED
    </text>
    <line x1="348" y1="400" x2="404" y2="400" stroke="#DFAC37" stroke-width="1.5" stroke-linecap="round" />
  </g>
</svg>
